<?xml version="1.0" encoding="utf-8"?>
<!-- Generator: Adobe Illustrator 26.0.2, SVG Export Plug-In . SVG Version: 6.00 Build 0)  -->
<svg version="1.1" xmlns="http://www.w3.org/2000/svg" xmlns:xlink="http://www.w3.org/1999/xlink" x="0px" y="0px"
	 viewBox="0 0 295 60" style="enable-background:new 0 0 295 60;" xml:space="preserve">
<style type="text/css">
	.st0{fill:#177EB6;}
	.st1{fill:#1C63AD;}
	.st2{opacity:0.75;fill:#214290;enable-background:new    ;}
	.st3{fill:#07AED1;}
	.st4{fill:#0075A2;}
	.st5{fill:#214290;}
	.st6{fill:#1D6EAD;}
	.st7{fill:#E32227;}
	.st8{fill:#7F141C;}
	.st9{fill:#FBCD0B;}
	.st10{fill:#F68D1E;}
	.st11{opacity:0.75;fill:#FFFFFF;enable-background:new    ;}
</style>
<g id="Layer_1">
	<path class="st0" d="M129.5,35c-1.3-3.3-2.5-6.7-3.5-10.2c-0.2-0.6-0.7-1-1.3-1.1c-0.6-0.1-1.1,0.1-1.5,0.7c-1.5,3.2-3,6.3-4.6,9.5
		c-0.3,0.6-0.2,1.1,0.1,1.6c0.3,0.4,0.7,0.7,1.3,0.7c0.5,0.1,0.9-0.2,1.3-0.8c0.2-0.4,0.4-0.8,0.6-1.2c0.1-0.2,0.2-0.3,0.2-0.5
		c1.3,0.2,2.6,0.3,3.8,0.5c0.2,0.5,0.4,1.1,0.6,1.6c0.2,0.4,0.4,0.7,0.7,0.9c0.3,0.2,0.7,0.3,1.2,0.2c0.4-0.1,0.7-0.4,0.9-0.7
		C129.6,35.8,129.6,35.4,129.5,35z M123.5,30.9c0.1-0.2,0.2-0.3,0.2-0.5c0.2-0.3,0.3-0.6,0.5-1c0.2,0.5,0.4,1.1,0.6,1.6
		C124.3,31,123.9,31,123.5,30.9z"/>
	<path class="st0" d="M137.9,23c-0.2,0-0.3,0-0.5,0c-2.1,0.1-4.1,0.2-6.2,0.3c-0.7,0.1-1.1,0.3-1.3,0.8c-0.2,0.5-0.2,1,0,1.5
		c0.2,0.5,0.7,0.7,1.3,0.7c0.3,0,0.6,0,0.9,0c0.3,0,0.6,0,0.9,0c0.2,2.7,0.4,5.4,0.5,8.1c0.1,0.7,0.4,1.1,0.9,1.3
		c0.5,0.2,1,0.2,1.5,0c0.5-0.2,0.7-0.7,0.7-1.3c-0.1-2.7-0.3-5.5-0.5-8.2c0.6,0,1.2-0.1,1.9-0.1c0.7-0.1,1.1-0.3,1.3-0.8
		c0.2-0.5,0.2-1,0-1.5C139,23.3,138.6,23,137.9,23z"/>
	<path class="st1" d="M287,19.8h-7.2v22.9h14.4V19.8H287z M248.4,19.8l7.2,12.5l7.2,10.5l7.2-10.5l7.2-12.5H248.4z M197,19.8
		l-7.2,12.5l7.2,10.5h14.4l-7.2-10.5l7.2-12.5H197z M212.3,30.6l3.5,2.2l3.5,2.2l10.6,6.7l7.1-4.5l10.6-6.7L229.9,0L212.3,30.6z"/>
	<path class="st1" d="M241.4,38.1l-11.5,7.3l-5.2-3.3l0,0l-6.3-4l0,0l-6.1-3.9L229.9,60l17.6-25.8L241.4,38.1L241.4,38.1z"/>
	<path class="st2" d="M277.4,46.5v-0.2l-0.1,0.2H277.4z"/>
	<path class="st3" d="M287,19.8h-7.2v22.9h14.4V19.8H287z"/>
	<path class="st4" d="M277.3,46.5h0.1v-0.2L277.3,46.5z"/>
	<path class="st3" d="M255.6,32.3l7.2-12.5h-14.4L255.6,32.3z"/>
	<path class="st5" d="M270,32.3l7.2-12.5h-14.4L270,32.3z"/>
	<path class="st6" d="M262.8,19.8l-7.2,12.5H270L262.8,19.8z"/>
	<path class="st5" d="M262.8,42.8l7.2-10.5h-14.4L262.8,42.8z"/>
	<path class="st6" d="M204.2,32.3l7.2-12.5H197L204.2,32.3z"/>
	<path class="st3" d="M197,19.8l-7.2,12.5h14.4L197,19.8z"/>
	<path class="st6" d="M197,42.8l7.2-10.5h-14.4L197,42.8z"/>
	<path class="st5" d="M204.2,32.3L197,42.8h14.4L204.2,32.3z"/>
	<path class="st3" d="M212.3,30.6l17.6,11.2V0L212.3,30.6z"/>
	<path class="st5" d="M247.5,30.6l-17.6,11.2V0L247.5,30.6z"/>
	<path class="st7" d="M215.8,32.9l14.1,9V8.4L215.8,32.9z"/>
	<path class="st8" d="M244,32.9l-14.1,9V8.4L244,32.9z"/>
	<path class="st9" d="M219.3,35.1l10.6,6.7V16.7L219.3,35.1z"/>
	<path class="st10" d="M240.5,35.1l-10.6,6.7V16.7L240.5,35.1z"/>
	<path class="st9" d="M222.8,37.3l7.1,4.5V25.1L222.8,37.3z"/>
	<path class="st10" d="M236.9,37.3l-7.1,4.5V25.1L236.9,37.3z"/>
	<path class="st5" d="M247.5,34.2L229.9,60V45.5L247.5,34.2z"/>
	<path class="st3" d="M212.4,34.2L229.9,60V45.5L212.4,34.2z"/>
	<path class="st8" d="M241.4,38.1l-11.5,16.8v-9.4L241.4,38.1z"/>
	<path class="st7" d="M218.5,38.1l11.4,16.8v-9.4L218.5,38.1z"/>
	<path class="st10" d="M235.1,42.1l-5.2,7.6v-4.3L235.1,42.1z"/>
	<path class="st9" d="M224.7,42.1l5.2,7.6v-4.3L224.7,42.1z"/>
	<g>
		<path class="st11" d="M229.9,41.8l2.4-4.2h-4.8L229.9,41.8z M229.9,25.1l2.4-4.2h-4.8L229.9,25.1z M232.3,29.3l2.4-4.2h-4.8
			L232.3,29.3z M237.1,29.3l2.4-4.2h-4.8L237.1,29.3z"/>
		<path class="st11" d="M234.7,33.5l2.4-4.2h-4.8L234.7,33.5z M232.3,37.7l2.4-4.2h-4.8L232.3,37.7z M227.5,37.7l2.4-4.2h-4.8
			L227.5,37.7z M222.7,29.3l-2.4-4.2h4.8L222.7,29.3z"/>
		<path class="st11" d="M225.1,33.5l-2.4-4.2h4.8L225.1,33.5z"/>
		<path class="st11" d="M227.5,29.3l-2.4-4.2h4.8L227.5,29.3z M232.3,20.9l2.4-4.2h-4.8L232.3,20.9z M227.5,20.9l-2.4-4.2h4.8
			L227.5,20.9z"/>
	</g>
	<path class="st3" d="M165.4,19.8v22.9l7.2-11.5L165.4,19.8z"/>
	<path class="st6" d="M172.6,19.8h-7.2l7.2,11.5l7.2-11.5H172.6z M172.6,31.3L172.6,31.3l-7.2,11.5h14.4L172.6,31.3z"/>
	<path class="st5" d="M179.8,19.8l-7.2,11.5v0l7.2,11.5l7.2-10.5L179.8,19.8z"/>
	<path class="st6" d="M287,31.3l-7.2,11.5h14.4l-0.4-0.6L287,31.3z M294.2,19.8h-14.4l7.2,11.5l6.8-10.9L294.2,19.8z"/>
	<path class="st5" d="M293.8,20.4L287,31.3l6.8,10.9l0.4,0.6V19.8L293.8,20.4z"/>
</g>
<g id="Web3">
	<g>
		<path class="st6" d="M13.7,39.3c-0.6,1.1-1.1,2.2-1.7,3.2c-0.3,0.5-0.6,0.9-0.9,1.4c-1.8,2.3-5,2.2-6.8-0.1
			c-1-1.3-1.5-2.9-1.9-4.5c-0.7-2.8-1.1-5.6-1.3-8.4c-0.2-3.2-0.4-6.4-0.6-9.6c0-0.6,0-1.2,0-1.8c0-1.2,0.8-2.3,1.9-2.6
			c1.2-0.4,2.4-0.1,3.2,1c0.5,0.6,0.5,1.3,0.6,2c0.5,4.2,1,8.4,1.5,12.6C7.8,33.3,7.9,34,8,34.8c0,0.1,0.1,0.2,0.2,0.4
			c0.1-0.3,0.3-0.6,0.4-0.8c0.4-1,0.8-2.1,1.3-3.1c0.3-0.7,0.8-1.3,1.3-1.8c1.1-1.3,4.1-1.4,5.2,0.5c0.5,0.9,1,1.9,1.5,2.9
			c0.9,2,1.8,4,2.7,6c0.2,0.3,0.4,0.6,0.6,1.1c0.2-0.4,0.3-0.6,0.4-0.8c0.6-1.9,0.9-3.9,1.1-5.9c0.4-4.4,0.3-8.9,0.2-13.4
			c0-0.6-0.2-1.2-0.2-1.8c-0.1-1.6,1.2-3.1,2.8-3.3c1.1-0.1,2.5,0.7,3.1,1.9c0.5,1,0.7,2,0.8,3.1c0.2,4.3,0.2,8.6-0.1,12.9
			c-0.3,3.6-0.9,7.2-2.5,10.5c-0.5,1.1-1.1,2.1-2.1,2.9c-2.5,1.9-5.2,1.7-7.4-0.6c-1.4-1.4-2.3-3.2-3.2-4.9
			C14,40.1,13.9,39.7,13.7,39.3z"/>
		<path class="st6" d="M62.4,18.2c2.2,0.1,4.7,0.7,6.9,2.5c2.4,2,3.2,5,1.9,7.9c-0.1,0.3-0.4,0.7-0.4,1c0.1,0.3,0.5,0.5,0.8,0.7
			c1.2,1,2.1,2.1,2.7,3.6c0.8,2,0.4,3.9-1,5.5c-0.3,0.4-0.6,0.7-1,1c-2.4,1.8-4.9,3.3-7.7,4.4c-1,0.4-2,0.7-3.1,0.4
			c-2.5-0.6-3.6-3.3-2.2-5.3c0.4-0.6,0.4-1.1,0.3-1.7c-0.7-4.4-1.4-8.7-2.1-13.1c-0.1-0.5-0.3-1-0.5-1.4c-0.9-1.5-0.7-3.1,0.6-4.2
			C58.6,18.6,60.1,18.2,62.4,18.2z M64,27.7c0.1,0,0.1,0,0.2,0c0.3-0.5,0.7-1,1-1.5c0.3-0.5,0.2-0.8-0.3-1.1c-0.5-0.3-1-0.5-1.4-0.7
			c0,0-0.1,0.1-0.1,0.1C63.6,25.6,63.8,26.7,64,27.7z M67.9,35.8c0-0.1,0-0.1,0-0.2c-0.8-0.5-1.6-1-2.5-1.5c0.1,0.9,0.2,1.7,0.4,2.5
			c0,0.2,0.2,0.3,0.4,0.2C66.8,36.4,67.4,36.1,67.9,35.8z"/>
		<path class="st6" d="M40.2,27c-0.1,0.7,0,0.8,0.6,0.7c0.8-0.1,1.6-0.1,2.4-0.2c1.3-0.1,2.5,0.9,2.9,2c0.4,1.2-0.1,2.6-1.2,3.3
			C44,33.5,43,33.7,42,33.8c-0.4,0-0.8,0-1.1,0.1c-0.2,0-0.5,0.2-0.5,0.3c0,0.2,0.1,0.5,0.2,0.7c0.2,0.2,0.5,0.4,0.9,0.4
			c1.2,0.2,2.3,0.5,3.5,0.5c1.8,0.1,3.6,0,5.3,0c1.1,0,2.2,0.1,2.9,1.1c0.9,1.1,0.8,2.7-0.1,3.8c-0.8,1-1.9,1.5-3.2,1.6
			c-3.1,0.2-6.1,0.2-9.2-0.5c-1.7-0.4-3.4-1-4.7-2.3c-1.2-1.1-1.8-2.5-2-4.1c0-0.3-0.1-0.6-0.1-0.8c-0.1-0.4-0.2-0.8-0.5-1.2
			c-0.7-0.8-0.7-2.3,0-3.2c1.1-1.5,0.9-3.1,0.4-4.7c-0.4-1.3-0.1-2.5,1-3.3c0.8-0.6,1.7-0.8,2.6-0.9c3.3-0.3,6.6-0.4,9.9,0
			c1.6,0.2,2.7,1.2,3.3,2.7c0.6,1.8-0.9,3.7-2.9,3.6c-1.3,0-2.5-0.2-3.8-0.3C42.7,27.2,41.4,27.1,40.2,27z"/>
		<path class="st6" d="M83.8,24.1c-0.2,0-0.5,0-0.7,0c-1.2,0-2.1-0.5-2.6-1.6c-0.5-1.1-0.4-2.2,0.4-3.1c1.2-1.4,2.9-1.9,4.7-1.8
			c4.1,0.3,6.3,4.7,4.8,8.2c-0.6,1.3-1.5,2.5-2.5,3.5c-0.1,0.1-0.2,0.3-0.4,0.4c0.3,0.2,0.5,0.3,0.8,0.4c1.4,0.8,2.6,1.8,3.4,3.2
			c1,1.7,0.9,4.1-0.4,5.6c-2.2,2.5-4.9,4.2-8.2,4.9c-2.1,0.5-4.1-0.9-4.5-3c-0.3-1.8,1-3.6,2.9-3.5c1.3,0.1,2.3-0.6,3.4-1.2
			c0.1-0.1,0.2-0.2,0.3-0.4c-0.2-0.1-0.4-0.2-0.6-0.3c-1.1-0.5-2.2-0.9-3.3-1.4c-0.5-0.2-1-0.5-1.4-0.9c-1.7-1.3-2-3.5-0.7-5.1
			c0.7-0.8,1.6-1.5,2.4-2.2c0.6-0.5,1.2-0.9,1.9-1.4C83.6,24.5,83.7,24.4,83.8,24.1C83.8,24.2,83.8,24.2,83.8,24.1z"/>
	</g>
</g>
</svg>
